#!OML:ASF F:\VICON\USERDATA\INSTALL\rory3\rory3.ASF
:FULLY-SPECIFIED
:DEGREES
71
root 4.076862304755737 17.637911219518344 22.995795563000666 -1.0250718101641114 -6.074504727298832 -7.636778392900402
lfemur -26.12088930764981 -5.027276553743585 -8.998551042552062
ltibia 12.490606824364743
lfoot -9.6261071157056 3.643004070847868
ltoes -8.507221259576802
rfemur 7.603891763488665 7.558138389275559 34.437256298124716
rtibia 28.373561416282115
rfoot -11.48641729278581 -3.003411929137506
rtoes -1.3513681144128862
lowerback nan 2.065043240075484 5.969532070345635
upperback 0.04191461228293081 4.023963904164102 1.9445521683563922
thorax -5.097447667224032 2.048502488551958 -2.2526844214335853
lowerneck -16.836728934082792 -3.534641740353797 -1.588634710706231
upperneck 17.90046501569547 -4.52540489776483 0.932452675911424
head 8.125642595857904 -2.1340292354728567 0.06955568285569516
lclavicle 1.8021354907562756e-16 -2.176680555261917e-15
lhumerus -39.91867700401589 3.4471474617211806 81.84086438744893
lradius 28.21257534214037
lwrist 4.4829817040647075
lhand -26.27274723983359 26.345566729786082
lfingers nan
lthumb -0.5179255797157138 54.5130383707508
rclavicle 1.3405011058275598e-15 4.497659826859e-16
rhumerus -23.711242004524692 -13.58823635651597 -80.85857568239014
rradius 33.28994079100726
rwrist 0.5255276675272742
rhand -18.7595624059374 nan
rfingers nan
rthumb 7.5710355349718865 -6.624586881546032
72
root 4.143526778066888 17.62200657302377 24.290805489799784 -1.5264221208406636 -5.888805450800099 -6.79450942789776
lfemur -27.266635398383468 -3.696368660802813 -11.398186667014361
ltibia 17.483133564561477
lfoot -8.946016578993463 2.50530103752112
ltoes -5.526740553658614
rfemur 9.08201275303092 6.725663576425658 33.28376803978109
rtibia 31.474207061296184
rfoot -9.6299958443565 -2.2217124921938636
rtoes -4.288943935849721
lowerback nan 1.9634310977652265 5.2452344954088685
upperback 0.11835156643359923 3.9412631888767553 1.7959259813026982
thorax -4.726045275888758 1.966596084377012 -2.0143690084695596
lowerneck -17.00859798915391 -3.67252585312756 -1.6558810192748685
upperneck 18.07220697874738 -4.716363768187469 1.2712253259179431
head 8.074161723184018 -2.1988319748199405 0.16610479544092466
lclavicle 2.791531760710436e-16 -3.128504288354061e-15
lhumerus -40.319751462384346 4.164746004000168 81.2303556109386
lradius 27.25269405581247
lwrist 3.6407935558484397
lhand -26.268077689896764 27.20644692536356
lfingers nan
lthumb -0.28311083922655317 56.001533412728854
rclavicle 5.463404626462812e-16 -7.600701186381657e-16
rhumerus -25.186720829109085 -14.561706508142551 -80.72973938076389
rradius 32.717575678546005
rwrist 1.0238069759527395
rhand -18.818756154812235 nan
rfingers nan
rthumb 7.3744963276338655 -6.410089622516519
73
root 4.199372071822998 17.618693849079026 24.55278576581714 -2.2791702255828366 -5.772780047836286 -6.098086210829345
lfemur -26.311932273963563 -3.9926306025269245 -14.157822771424303
ltibia 21.992739157551963
lfoot -8.714581326725352 -0.4195742157124154
ltoes -2.8346892491673734
rfemur 8.126514399998431 4.999227002548967 30.57693109984759
rtibia 36.4410239956664
rfoot -6.314910201178424 -1.1279514602730885
rtoes -6.4276033963792685
lowerback nan 1.8970649852694488 3.8209075051899637
upperback 0.09818082249953491 3.766285537370882 1.429747244501605
thorax -4.747227691097704 1.9061593364241545 -1.6103315313034812
lowerneck -16.830067320440378 -3.7441722526588306 -1.737343451081731
upperneck 17.87756776191367 -4.996663149309788 1.4345452270109473
head 7.964037037166156 -2.3151814268155095 0.23818022247041512
lclavicle 3.873358219304917e-15 8.015290402054507e-16
lhumerus -40.218076832786394 4.630946957689894 80.78417164323598
lradius 26.482742675104003
lwrist 2.6165675750008024
lhand -26.78532066215672 25.029955399041686
lfingers nan
lthumb -0.6555070944041591 53.98346855479156
rclavicle -3.42147008620547e-15 -3.4033794321464193e-15
rhumerus -25.736112078585872 -14.967235353897994 -80.76363796887092
rradius 32.280694345591
rwrist 1.5444603160129342
rhand -18.984258937722228 nan
rfingers nan
rthumb 7.304064407674941 -5.6344504986370545
74
root 4.280018890074133 17.648892649330246 26.040784930573903 -2.864420486437349 -5.6432352382979065 -5.037030217059606
lfemur -24.007402977150612 -3.180439336956315 -17.204240677124833
ltibia 25.643409829651194
lfoot -7.362789137664423 -2.2730538862759664
ltoes -3.6695266391490926
rfemur 4.13514247059058 2.2331694729505998 27.520214419530436
rtibia 44.2361716271593
rfoot 0.3692399889080571 0.5015893042823656
rtoes -4.648824725391098
lowerback nan 1.8519091362262607 2.6104115294129793
upperback 0.3845214097912276 3.550370713550356 0.8890917519221497
thorax -4.756794466687028 1.8161373811452068 -1.2210646048489981
lowerneck -16.762535948219153 -3.6039635171105373 -1.6840701365589015
upperneck 18.58560048036925 -5.350765009691891 1.4980417273125703
head 8.251638032254053 -2.4565003466304454 0.07680634290573857
lclavicle 1.26703159272672e-15 -2.0442761253720316e-15
lhumerus -40.37355950537315 4.422947459000247 80.72879301967518
lradius 24.809994458413048
lwrist 1.634115134246212
lhand -25.583433088002366 26.16871588002047
lfingers nan
lthumb 0.1380312917927646 54.58820661114529
rclavicle 1.8787788652786505e-15 -3.9656518301255545e-16
rhumerus -26.214169965105263 -15.618865397496101 -80.75761479603794
rradius 31.869329227179005
rwrist 2.2253767288841826
rhand -18.74362207679876 nan
rfingers nan
rthumb 7.193414080385422 -5.664564907304794
75
root 4.328179927343751 17.670161486702167 25.527268681929385 -3.5090370816096117 -5.928191972920371 -4.047126594339573
lfemur -22.218497841985958 -1.6662802057941661 -18.114416973161834
ltibia 27.877815587531664
lfoot -7.788910547901232 -2.427519799782361
ltoes -4.546472859874668
rfemur -0.486231704989871 1.8215080880094652 26.61658223860417
rtibia 53.6060230915025
rfoot 9.518073545618298 1.87391132359694
rtoes 0.6324484395834031
lowerback nan 1.9923227573949052 2.705949051063382
upperback 0.12081186709492109 3.5332783986557654 0.9274440932351246
thorax -5.003774232796143 1.8787487483260823 -1.021912900720841
lowerneck -16.63498507840463 -3.461501498268548 -1.7474200690514619
upperneck 18.127462512030668 -5.261921996422434 1.6416237095452961
head 8.380041362894085 -2.4027563919361814 0.12283192429358121
lclavicle 2.6280960735682697e-15 -7.50504333726479e-16
lhumerus -40.40529944121353 4.3158201773020455 80.75004997121125
lradius 23.428786721434154
lwrist 0.374676696440579
lhand -26.284292254308358 25.48298507725545
lfingers nan
lthumb 0.9026329105120817 56.47094103960906
rclavicle 9.530275739384426e-16 -1.5270598000764825e-15
rhumerus -27.058094366834542 -16.239927012000464 -80.53890001219006
rradius 31.29106286524676
rwrist 2.7088445628322817
rhand -18.39478864276109 nan
rfingers nan
rthumb 7.622958433957045 -5.958022880954484
